<?xml version="1.0" encoding="utf-8"?>
<!-- Generator: Adobe Illustrator 22.1.0, SVG Export Plug-In . SVG Version: 6.00 Build 0)  -->
<svg version="1.1" id="Layer_1" xmlns="http://www.w3.org/2000/svg" xmlns:xlink="http://www.w3.org/1999/xlink" x="0px" y="0px"
	 viewBox="0 0 841.9 595.3" style="enable-background:new 0 0 841.9 595.3;" xml:space="preserve">
<style type="text/css">
	.st0{fill:url(#SVGID_1_);}
</style>
<g>
	<g>
		<linearGradient id="SVGID_1_" gradientUnits="userSpaceOnUse" x1="420.8624" y1="123.8402" x2="420.8624" y2="546.817">
			<stop  offset="0" style="stop-color:#68ACDE"/>
			<stop  offset="0.1616" style="stop-color:#6AAED8"/>
			<stop  offset="0.4304" style="stop-color:#6DB4CD"/>
			<stop  offset="0.7709" style="stop-color:#70BEBA"/>
			<stop  offset="1" style="stop-color:#71C6A9"/>
		</linearGradient>
		<path class="st0" d="M287.4,231.5c-3.8,0-7.6,0.4-11.4,1.1v9.5c3.9-0.7,7.7-1.1,11.5-1.1c25.4-0.2,24.5,23.2,24.5,23.2l0,2.1
			l0,30.8c0,2.6-0.1,5.3-0.1,8c-0.2,10.3-0.4,21,2.2,31.3c2.6,10.1,9.8,22,22.3,25.1c2.3,0.6,4.6,0.8,7,0.8c8,0,16.1-3.1,22.4-8.8
			c12.9-11.7,18.2-28.4,23.3-44.6c1.4-4.3,2.6-8.4,4-12.3c4-11,9.2-23.5,17.7-32.2c4.5-4.7,9.8-7.4,14.9-7.8
			c5.5-0.4,11.6,2,16.6,6.6c10.2,9.3,14.6,23.4,17.9,35.9l0.5,1.9c4,15.2,8.2,31,17.8,44.4c5,7,10.4,11.7,16.4,14.3
			c7.4,3.2,16.1,3.5,24.5,0.7c7-2.3,13.7-6.6,19.8-12.8c17-17.2,23.2-42.2,26.4-59.5l-9.8-1.8c-3,16-8.7,39.1-23.7,54.4
			c-5,5.1-10.3,8.6-15.8,10.4c-6,2-12.4,1.9-17.4-0.4c-4.4-1.9-8.4-5.5-12.4-11c-8.6-11.9-12.5-26.7-16.3-41.1l-0.5-1.9
			c-3.7-13.9-8.7-29.6-20.8-40.7c-7-6.4-15.8-9.7-24-9.1c-7.5,0.5-15.1,4.4-21.3,10.8c-9.8,10.1-15.6,23.8-19.9,35.8
			c-1.5,4.1-2.8,8.5-4.2,12.7c-4.7,14.9-9.5,30.3-20.5,40.2c-5.7,5.2-13.5,7.4-20.3,5.7c-8.3-2.1-13.3-10.9-15.1-17.9
			c-2.3-9-2.1-19-1.9-28.7c0.1-2.8,0.1-5.5,0.1-8.2l0-30.8l0-2.1C322,264.2,323.3,231.5,287.4,231.5z"/>
	</g>
</g>
</svg>
