<svg id="Layer_1" data-name="Layer 1" xmlns="http://www.w3.org/2000/svg" xmlns:xlink="http://www.w3.org/1999/xlink" viewBox="0 0 841.9 595.3"><defs><style>.cls-1{fill:url(#linear-gradient);}.cls-2{fill:url(#linear-gradient-2);}.cls-3{fill:url(#linear-gradient-3);}.cls-4{fill:url(#linear-gradient-4);}.cls-5{fill:url(#linear-gradient-5);}.cls-6{fill:url(#linear-gradient-6);}.cls-7{fill:url(#linear-gradient-7);}.cls-8{fill:url(#linear-gradient-8);}.cls-9{fill:url(#linear-gradient-9);}.cls-10{fill:url(#linear-gradient-10);}.cls-11{fill:url(#linear-gradient-11);}.cls-12{fill:url(#linear-gradient-12);}.cls-13{fill:url(#linear-gradient-13);}.cls-14{fill:url(#linear-gradient-14);}.cls-15{fill:url(#linear-gradient-15);}.cls-16{fill:url(#linear-gradient-16);}.cls-17{fill:url(#linear-gradient-17);}.cls-18{fill:url(#linear-gradient-18);}</style><linearGradient id="linear-gradient" x1="270.28" y1="189.1" x2="270.28" y2="388.51" gradientUnits="userSpaceOnUse"><stop offset="0" stop-color="#68acde"/><stop offset="0.27" stop-color="#6ab1d5"/><stop offset="0.73" stop-color="#6ebdbb"/><stop offset="1" stop-color="#71c6a9"/></linearGradient><linearGradient id="linear-gradient-2" x1="322.93" y1="189.1" x2="322.93" y2="388.51" xlink:href="#linear-gradient"/><linearGradient id="linear-gradient-3" x1="383.1" y1="189.1" x2="383.1" y2="388.51" xlink:href="#linear-gradient"/><linearGradient id="linear-gradient-4" x1="450.41" y1="189.1" x2="450.41" y2="388.51" xlink:href="#linear-gradient"/><linearGradient id="linear-gradient-5" x1="509.84" y1="189.1" x2="509.84" y2="388.51" xlink:href="#linear-gradient"/><linearGradient id="linear-gradient-6" x1="558.79" y1="189.1" x2="558.79" y2="388.51" xlink:href="#linear-gradient"/><linearGradient id="linear-gradient-7" x1="599.32" y1="189.1" x2="599.32" y2="388.51" xlink:href="#linear-gradient"/><linearGradient id="linear-gradient-8" x1="452.22" y1="189.1" x2="452.22" y2="388.51" xlink:href="#linear-gradient"/><linearGradient id="linear-gradient-9" x1="243.85" y1="189.1" x2="243.85" y2="388.51" xlink:href="#linear-gradient"/><linearGradient id="linear-gradient-10" x1="270.28" y1="188.67" x2="270.28" y2="388.08" xlink:href="#linear-gradient"/><linearGradient id="linear-gradient-11" x1="322.93" y1="188.67" x2="322.93" y2="388.08" xlink:href="#linear-gradient"/><linearGradient id="linear-gradient-12" x1="383.1" y1="188.67" x2="383.1" y2="388.08" xlink:href="#linear-gradient"/><linearGradient id="linear-gradient-13" x1="450.41" y1="188.67" x2="450.41" y2="388.08" xlink:href="#linear-gradient"/><linearGradient id="linear-gradient-14" x1="509.84" y1="188.67" x2="509.84" y2="388.08" xlink:href="#linear-gradient"/><linearGradient id="linear-gradient-15" x1="558.79" y1="188.67" x2="558.79" y2="388.08" xlink:href="#linear-gradient"/><linearGradient id="linear-gradient-16" x1="599.32" y1="188.67" x2="599.32" y2="388.08" xlink:href="#linear-gradient"/><linearGradient id="linear-gradient-17" x1="452.22" y1="188.67" x2="452.22" y2="388.08" xlink:href="#linear-gradient"/><linearGradient id="linear-gradient-18" x1="243.85" y1="188.67" x2="243.85" y2="388.08" xlink:href="#linear-gradient"/></defs><title>Humwell Color </title><path class="cls-1" d="M265,420.66a12.72,12.72,0,0,1,5.84-1.24c5.55,0,10.94,3.58,10.94,11.15V452h-6.18V430.51c0-5.6-7.26-5.79-10.6-3.51V452h-6.24V408.33H265Z"/><path class="cls-2" d="M334.44,449.92a27.53,27.53,0,0,1-11.28,2.65c-6.4-.06-11.73-3.14-11.73-11.09V420h6.23V441.6c.17,3.57,3.23,5.12,6.35,5.12a8.89,8.89,0,0,0,4.25-1.11V420h6.18Z"/><path class="cls-3" d="M364.37,422.81a17.69,17.69,0,0,1,10-3.39c3.52,0,6.81,1.05,8.56,4.25a9.46,9.46,0,0,1,8.05-4.25c5.33-.06,10.89,3.45,10.89,10.54v22h-6.18V430.2c0-2.89-2.27-4.18-4.71-4.18S386,427.49,386,430v22H379.9V430.08c0-2.89-2.5-4.06-5.16-4.06a7.58,7.58,0,0,0-4.25,1.29V452h-6.12Z"/><path class="cls-4" d="M453.53,420.84l4.87,23.66h.17l1.08-7.77L463.56,420h6.29L461.63,452h-6.52l-4.65-21.68h0L445.76,452h-6.52L431,420h6.41l4,16.82,1,7.76h.17c.11-1.48.9-6.22,4.82-23.78Z"/><path class="cls-5" d="M520.46,446a12.07,12.07,0,0,1-10.54,6.53c-5.78,0-11.62-3.64-11.62-11V430.39c0-7.46,5.84-11,11.62-11,5.61,0,11.45,3.51,11.45,11v8.75H504.59v2.22c0,2.89,2.55,4.62,5.22,4.62a5.58,5.58,0,0,0,5.44-3.21Zm-5.1-15.53c0-2.95-2.66-4.49-5.38-4.49s-5.5,1.47-5.39,4.62v2.89h10.77Z"/><path class="cls-6" d="M564.46,452.57c-7.26,0-11.34-4.19-11.34-11V408.33h6.24V441.6c0,2.59,1.59,4.62,5.1,4.62Z"/><path class="cls-7" d="M605,452.57c-7.25,0-11.33-4.19-11.33-11V408.33h6.23V441.6c0,2.59,1.59,4.62,5.1,4.62Z"/><path class="cls-8" d="M309.89,236.8A62.64,62.64,0,0,0,297.78,238v10.12a69.81,69.81,0,0,1,12.3-1.16c27.08-.18,26.14,24.74,26.14,24.74v35c0,2.81-.06,5.67-.11,8.54-.22,11-.44,22.45,2.34,33.39,2.73,10.75,10.41,23.41,23.75,26.73a31.17,31.17,0,0,0,7.47.9,36,36,0,0,0,23.85-9.4c13.78-12.48,19.39-30.32,24.81-47.57,1.45-4.59,2.81-8.93,4.32-13.12,4.22-11.74,9.77-25,18.85-34.38,4.82-5,10.46-7.92,15.87-8.32,5.88-.44,12.34,2.14,17.72,7,10.86,9.88,15.56,24.95,19.11,38.31l.53,2c4.31,16.25,8.76,33.05,19,47.3,5.37,7.45,11.1,12.45,17.52,15.27,7.87,3.46,17.15,3.73,26.16.76,7.48-2.48,14.58-7.08,21.1-13.69,18.09-18.33,24.73-45,28.14-63.49L596.26,295C593.1,312.14,587,336.76,571,353c-5.34,5.41-11,9.13-16.9,11.07-6.42,2.12-13.19,2-18.59-.39-4.64-2-9-5.89-13.18-11.77-9.12-12.67-13.33-28.51-17.39-43.83l-.53-2c-3.94-14.81-9.23-31.61-22.21-43.41-7.52-6.84-16.84-10.38-25.61-9.76-8,.59-16.06,4.67-22.69,11.51-10.49,10.81-16.61,25.36-21.21,38.17-1.58,4.38-3,9-4.46,13.52-5,15.9-10.16,32.34-21.82,42.9-6.13,5.54-14.43,7.88-21.67,6.08-8.83-2.2-14.16-11.65-16.05-19.08-2.43-9.55-2.22-20.24-2-30.57.06-2.95.12-5.87.12-8.76v-35S348.2,236.8,309.89,236.8Z"/><path class="cls-9" d="M257.79,182.59V345.82h10.57c0-9.06,0-67.31,0-112.83V175c-.2-20.57-18.46-31.45-36.91-31.45a62.64,62.64,0,0,0-12.11,1.21v10.11a69.79,69.79,0,0,1,12.3-1.15c13,0,26.17,6.78,26.17,20.71Z"/><path class="cls-10" d="M265,420.23a12.72,12.72,0,0,1,5.84-1.24c5.55,0,10.94,3.58,10.94,11.15v21.38h-6.18V430.08c0-5.6-7.26-5.79-10.6-3.51v24.95h-6.24V407.9H265Z"/><path class="cls-11" d="M334.44,449.49a27.53,27.53,0,0,1-11.28,2.65c-6.4-.06-11.73-3.14-11.73-11.09V419.61h6.23v21.56c.17,3.58,3.23,5.12,6.35,5.12a8.89,8.89,0,0,0,4.25-1.11V419.61h6.18Z"/><path class="cls-12" d="M364.37,422.38a17.69,17.69,0,0,1,10-3.39c3.52,0,6.81,1.05,8.56,4.25A9.46,9.46,0,0,1,391,419c5.33-.06,10.89,3.45,10.89,10.54v22h-6.18V429.78c0-2.9-2.27-4.19-4.71-4.19s-4.93,1.47-4.93,3.94v22H379.9V429.65c0-2.89-2.5-4.06-5.16-4.06a7.58,7.58,0,0,0-4.25,1.29v24.64h-6.12Z"/><path class="cls-13" d="M453.53,420.41l4.87,23.66h.17l1.08-7.77,3.91-16.69h6.29l-8.22,31.91h-6.52l-4.65-21.68h0l-4.65,21.68h-6.52L431,419.61h6.41l4,16.82,1,7.76h.17c.11-1.48.9-6.22,4.82-23.78Z"/><path class="cls-14" d="M520.46,445.61a12.07,12.07,0,0,1-10.54,6.53c-5.78,0-11.62-3.64-11.62-11V430c0-7.45,5.84-11,11.62-11,5.61,0,11.45,3.52,11.45,11v8.75H504.59v2.22c0,2.89,2.55,4.62,5.22,4.62a5.56,5.56,0,0,0,5.44-3.21Zm-5.1-15.53c0-2.95-2.66-4.49-5.38-4.49s-5.5,1.47-5.39,4.62v2.89h10.77Z"/><path class="cls-15" d="M564.46,452.14c-7.26,0-11.34-4.19-11.34-11V407.9h6.24v33.27c0,2.59,1.59,4.62,5.1,4.62Z"/><path class="cls-16" d="M605,452.14c-7.25,0-11.33-4.19-11.33-11V407.9h6.23v33.27c0,2.59,1.59,4.62,5.1,4.62Z"/><path class="cls-17" d="M309.89,236.37a62.64,62.64,0,0,0-12.11,1.21V247.7a69.81,69.81,0,0,1,12.3-1.16c27.08-.18,26.14,24.74,26.14,24.74v35c0,2.81-.06,5.67-.11,8.55-.22,11-.44,22.44,2.34,33.38,2.73,10.75,10.41,23.41,23.75,26.73a31.17,31.17,0,0,0,7.47.9,36,36,0,0,0,23.85-9.4c13.78-12.48,19.39-30.32,24.81-47.57,1.45-4.59,2.81-8.93,4.32-13.12,4.22-11.74,9.77-25,18.85-34.38,4.82-5,10.46-7.92,15.87-8.32,5.88-.44,12.34,2.14,17.72,7,10.86,9.88,15.56,24.95,19.11,38.31l.53,2c4.31,16.25,8.76,33.05,19,47.3,5.37,7.45,11.1,12.45,17.52,15.27,7.87,3.46,17.15,3.73,26.16.76,7.48-2.48,14.58-7.08,21.1-13.69,18.09-18.33,24.73-45,28.14-63.49l-10.4-1.92c-3.16,17.11-9.22,41.73-25.26,58-5.34,5.41-11,9.13-16.9,11.07-6.42,2.12-13.19,2-18.59-.39-4.64-2-9-5.89-13.18-11.77C513.21,338.82,509,323,504.94,307.66l-.53-2c-3.94-14.81-9.23-31.61-22.21-43.41-7.52-6.84-16.84-10.38-25.61-9.76-8,.59-16.06,4.67-22.69,11.51-10.49,10.81-16.61,25.36-21.21,38.17-1.58,4.38-3,9-4.46,13.52-5,15.9-10.16,32.35-21.82,42.9-6.13,5.55-14.43,7.88-21.67,6.08-8.83-2.2-14.16-11.65-16.05-19.08-2.43-9.55-2.22-20.24-2-30.57.06-2.95.12-5.87.12-8.76v-35S348.2,236.37,309.89,236.37Z"/><path class="cls-18" d="M257.79,182.16V345.39h10.57c0-9.06,0-67.31,0-112.83V174.61c-.2-20.57-18.46-31.45-36.91-31.45a62.64,62.64,0,0,0-12.11,1.21v10.12a68.88,68.88,0,0,1,12.3-1.16c13,0,26.17,6.78,26.17,20.72Z"/></svg>