<svg id="Layer_1" data-name="Layer 1" xmlns="http://www.w3.org/2000/svg" viewBox="0 0 841.9 595.3"><defs><style>.cls-1{fill:#fff;}</style></defs><title>Humwell white</title><path class="cls-1" d="M265,420.23a12.72,12.72,0,0,1,5.84-1.24c5.55,0,10.94,3.58,10.94,11.15v21.38h-6.18V430.08c0-5.6-7.26-5.79-10.6-3.51v24.95h-6.24V407.9H265Z"/><path class="cls-1" d="M334.44,449.49a27.53,27.53,0,0,1-11.28,2.65c-6.4-.06-11.73-3.14-11.73-11.09V419.61h6.23v21.56c.17,3.58,3.23,5.12,6.35,5.12a8.89,8.89,0,0,0,4.25-1.11V419.61h6.18Z"/><path class="cls-1" d="M364.37,422.38a17.69,17.69,0,0,1,10-3.39c3.52,0,6.81,1.05,8.56,4.25A9.46,9.46,0,0,1,391,419c5.33-.06,10.89,3.45,10.89,10.54v22h-6.18V429.78c0-2.9-2.27-4.19-4.71-4.19s-4.93,1.47-4.93,3.94v22H379.9V429.65c0-2.89-2.5-4.06-5.16-4.06a7.58,7.58,0,0,0-4.25,1.29v24.64h-6.12Z"/><path class="cls-1" d="M453.53,420.41l4.87,23.66h.17l1.08-7.77,3.91-16.69h6.29l-8.22,31.91h-6.52l-4.65-21.68h0l-4.65,21.68h-6.52L431,419.61h6.41l4,16.82,1,7.76h.17c.11-1.48.9-6.22,4.82-23.78Z"/><path class="cls-1" d="M520.46,445.61a12.07,12.07,0,0,1-10.54,6.53c-5.78,0-11.62-3.64-11.62-11V430c0-7.45,5.84-11,11.62-11,5.61,0,11.45,3.52,11.45,11v8.75H504.59v2.22c0,2.89,2.55,4.62,5.22,4.62a5.56,5.56,0,0,0,5.44-3.21Zm-5.1-15.53c0-2.95-2.66-4.49-5.38-4.49s-5.5,1.47-5.39,4.62v2.89h10.77Z"/><path class="cls-1" d="M564.46,452.14c-7.26,0-11.34-4.19-11.34-11V407.9h6.24v33.27c0,2.59,1.59,4.62,5.1,4.62Z"/><path class="cls-1" d="M605,452.14c-7.25,0-11.33-4.19-11.33-11V407.9h6.23v33.27c0,2.59,1.59,4.62,5.1,4.62Z"/><path class="cls-1" d="M309.89,236.37a62.64,62.64,0,0,0-12.11,1.21V247.7a69.81,69.81,0,0,1,12.3-1.16c27.08-.18,26.14,24.74,26.14,24.74v35c0,2.81-.06,5.67-.11,8.55-.22,11-.44,22.44,2.34,33.38,2.73,10.75,10.41,23.41,23.75,26.73a31.17,31.17,0,0,0,7.47.9,36,36,0,0,0,23.85-9.4c13.78-12.48,19.39-30.32,24.81-47.57,1.45-4.59,2.81-8.93,4.32-13.12,4.22-11.74,9.77-25,18.85-34.38,4.82-5,10.46-7.92,15.87-8.32,5.88-.44,12.34,2.14,17.72,7,10.86,9.88,15.56,24.95,19.11,38.31l.53,2c4.31,16.25,8.76,33.05,19,47.3,5.37,7.45,11.1,12.45,17.52,15.27,7.87,3.46,17.15,3.73,26.16.76,7.48-2.48,14.58-7.08,21.1-13.69,18.09-18.33,24.73-45,28.14-63.49l-10.4-1.92c-3.16,17.11-9.22,41.73-25.26,58-5.34,5.41-11,9.13-16.9,11.07-6.42,2.12-13.19,2-18.59-.39-4.64-2-9-5.89-13.18-11.77C513.21,338.82,509,323,504.94,307.66l-.53-2c-3.94-14.81-9.23-31.61-22.21-43.41-7.52-6.84-16.84-10.38-25.61-9.76-8,.59-16.06,4.67-22.69,11.51-10.49,10.81-16.61,25.36-21.21,38.17-1.58,4.38-3,9-4.46,13.52-5,15.9-10.16,32.35-21.82,42.9-6.13,5.55-14.43,7.88-21.67,6.08-8.83-2.2-14.16-11.65-16.05-19.08-2.43-9.55-2.22-20.24-2-30.57.06-2.95.12-5.87.12-8.76v-35S348.2,236.37,309.89,236.37Z"/><path class="cls-1" d="M257.79,182.16V345.39h10.57c0-9.06,0-67.31,0-112.83V174.61c-.2-20.57-18.46-31.45-36.91-31.45a62.64,62.64,0,0,0-12.11,1.21v10.12a68.88,68.88,0,0,1,12.3-1.16c13,0,26.17,6.78,26.17,20.72Z"/></svg>