<svg id="Layer_1" data-name="Layer 1" xmlns="http://www.w3.org/2000/svg" xmlns:xlink="http://www.w3.org/1999/xlink" viewBox="0 0 160 80"><defs><style>.cls-1{fill:url(#linear-gradient);}.cls-2{fill:url(#linear-gradient-2);}.cls-3{fill:url(#linear-gradient-3);}.cls-4{fill:url(#linear-gradient-4);}.cls-5{fill:url(#linear-gradient-5);}.cls-6{fill:url(#linear-gradient-6);}.cls-7{fill:url(#linear-gradient-7);}.cls-8{fill:url(#linear-gradient-8);}.cls-9{fill:url(#linear-gradient-9);}</style><linearGradient id="linear-gradient" x1="88.03" y1="12.44" x2="88.03" y2="64.45" gradientUnits="userSpaceOnUse"><stop offset="0" stop-color="#68acde"/><stop offset="0.27" stop-color="#6ab1d5"/><stop offset="0.73" stop-color="#6ebdbb"/><stop offset="1" stop-color="#71c6a9"/></linearGradient><linearGradient id="linear-gradient-2" x1="33.69" y1="12.44" x2="33.69" y2="64.45" xlink:href="#linear-gradient"/><linearGradient id="linear-gradient-3" x1="40.09" y1="65.11" x2="40.09" y2="84.5" xlink:href="#linear-gradient"/><linearGradient id="linear-gradient-4" x1="54.03" y1="65.11" x2="54.03" y2="84.5" xlink:href="#linear-gradient"/><linearGradient id="linear-gradient-5" x1="69.96" y1="65.11" x2="69.96" y2="84.5" xlink:href="#linear-gradient"/><linearGradient id="linear-gradient-6" x1="87.78" y1="65.11" x2="87.78" y2="84.5" xlink:href="#linear-gradient"/><linearGradient id="linear-gradient-7" x1="103.51" y1="65.11" x2="103.51" y2="84.5" xlink:href="#linear-gradient"/><linearGradient id="linear-gradient-8" x1="116.47" y1="65.11" x2="116.47" y2="84.5" xlink:href="#linear-gradient"/><linearGradient id="linear-gradient-9" x1="127.2" y1="65.11" x2="127.2" y2="84.5" xlink:href="#linear-gradient"/></defs><title>Color Logo</title><path class="cls-1" d="M50.91,24.88a16.5,16.5,0,0,0-3.15.32v2.64a17.49,17.49,0,0,1,3.2-.3C58,27.49,57.78,34,57.78,34v9.12c0,.74,0,1.48,0,2.23a32.34,32.34,0,0,0,.61,8.71c.71,2.8,2.71,6.1,6.19,7a8,8,0,0,0,2,.23,9.4,9.4,0,0,0,6.22-2.45c3.59-3.25,5-7.9,6.47-12.4.38-1.2.73-2.33,1.12-3.42,1.1-3.07,2.55-6.53,4.92-9a6.62,6.62,0,0,1,4.14-2.17A6.4,6.4,0,0,1,94,33.68c2.83,2.57,4.06,6.5,5,10l.14.52c1.12,4.24,2.29,8.62,5,12.34a11.39,11.39,0,0,0,4.57,4,9.5,9.5,0,0,0,6.82.19,13.9,13.9,0,0,0,5.5-3.56c4.72-4.78,6.45-11.74,7.34-16.56l-2.71-.5c-.83,4.46-2.41,10.88-6.59,15.12a11.09,11.09,0,0,1-4.41,2.88,6.8,6.8,0,0,1-4.84-.1,8.65,8.65,0,0,1-3.44-3.07c-2.38-3.3-3.48-7.43-4.53-11.43l-.14-.52c-1-3.86-2.41-8.24-5.8-11.32a9.16,9.16,0,0,0-6.67-2.54,9.37,9.37,0,0,0-5.92,3c-2.73,2.82-4.33,6.61-5.53,9.95-.41,1.15-.79,2.36-1.16,3.53-1.31,4.15-2.65,8.43-5.69,11.19a6.35,6.35,0,0,1-5.65,1.58c-2.31-.57-3.7-3-4.19-5a30.87,30.87,0,0,1-.53-8c0-.77,0-1.54,0-2.29V34S60.9,24.88,50.91,24.88Z"/><path class="cls-2" d="M37.33,10.75V53.31h2.76V8.78c0-5.36-4.81-8.2-9.62-8.2A16.6,16.6,0,0,0,27.3.89V3.53a18.44,18.44,0,0,1,3.21-.3c3.38,0,6.82,1.77,6.82,5.4Z"/><path class="cls-3" d="M38.7,71.55a3.28,3.28,0,0,1,1.54-.32,2.77,2.77,0,0,1,2.9,3v5.66H41.5V74.16c0-1.48-1.92-1.53-2.8-.93v6.61H37V68.29H38.7Z"/><path class="cls-4" d="M57.08,79.3a7.3,7.3,0,0,1-3,.7c-1.7,0-3.11-.83-3.11-2.94V71.39h1.66V77.1a1.49,1.49,0,0,0,1.68,1.35,2.3,2.3,0,0,0,1.12-.29V71.39h1.64Z"/><path class="cls-5" d="M65,72.12a4.62,4.62,0,0,1,2.64-.89,2.39,2.39,0,0,1,2.27,1.12A2.49,2.49,0,0,1,72,71.23,2.72,2.72,0,0,1,74.92,74v5.83H73.28V74.08A1.11,1.11,0,0,0,72,73a1.19,1.19,0,0,0-1.31,1v5.83H69.11V74.05c0-.77-.66-1.08-1.36-1.08a2,2,0,0,0-1.13.34v6.53H65Z"/><path class="cls-6" d="M88.6,71.6l1.29,6.26h0l.28-2,1-4.42h1.66l-2.17,8.45H89L87.79,74.1h0l-1.23,5.74H84.82l-2.19-8.45h1.7l1,4.45.27,2.06h0c0-.4.24-1.65,1.28-6.3Z"/><path class="cls-7" d="M106.32,78.27A3.19,3.19,0,0,1,103.53,80a2.87,2.87,0,0,1-3.07-2.9v-3a3.05,3.05,0,0,1,6.1,0v2.31h-4.44V77a1.29,1.29,0,0,0,1.38,1.23,1.48,1.48,0,0,0,1.44-.85ZM105,74.16A1.28,1.28,0,0,0,103.55,73c-.74,0-1.46.39-1.43,1.22V75H105Z"/><path class="cls-8" d="M118,80a2.7,2.7,0,0,1-3-2.9V68.29h1.65V77.1A1.18,1.18,0,0,0,118,78.32Z"/><path class="cls-9" d="M128.7,80a2.7,2.7,0,0,1-3-2.9V68.29h1.65V77.1a1.18,1.18,0,0,0,1.35,1.22Z"/></svg>