<svg id="Layer_1" data-name="Layer 1" xmlns="http://www.w3.org/2000/svg" viewBox="0 0 160 80"><defs><style>.cls-1{fill:#fff;}</style></defs><title>White logo</title><path class="cls-1" d="M49.5,24.88a16.6,16.6,0,0,0-3.16.32v2.64a17.52,17.52,0,0,1,3.21-.3c7.06-.05,6.81,6.45,6.81,6.45v9.12c0,.74,0,1.48,0,2.23a33.17,33.17,0,0,0,.61,8.71c.71,2.8,2.72,6.1,6.2,7a7.86,7.86,0,0,0,1.94.23A9.4,9.4,0,0,0,71.3,58.8c3.6-3.25,5.06-7.9,6.47-12.4.38-1.2.74-2.33,1.13-3.42,1.1-3.07,2.55-6.53,4.91-9A6.62,6.62,0,0,1,88,31.84a6.37,6.37,0,0,1,4.62,1.84c2.83,2.57,4.06,6.5,5,10l.13.52c1.13,4.24,2.29,8.62,5,12.34a11.37,11.37,0,0,0,4.56,4,9.51,9.51,0,0,0,6.82.19,13.86,13.86,0,0,0,5.51-3.56c4.72-4.78,6.45-11.74,7.34-16.56l-2.72-.5c-.82,4.46-2.4,10.88-6.59,15.12a11.12,11.12,0,0,1-4.4,2.88,6.83,6.83,0,0,1-4.85-.1,8.72,8.72,0,0,1-3.44-3.07c-2.37-3.3-3.47-7.43-4.53-11.43l-.14-.52c-1-3.86-2.41-8.24-5.79-11.32a9.17,9.17,0,0,0-6.68-2.54,9.34,9.34,0,0,0-5.91,3C79.1,34.91,77.5,38.7,76.3,42c-.41,1.15-.79,2.36-1.16,3.53-1.3,4.15-2.65,8.43-5.69,11.19a6.34,6.34,0,0,1-5.65,1.58c-2.3-.57-3.69-3-4.18-5a30.43,30.43,0,0,1-.53-8c0-.77,0-1.54,0-2.29V34S59.49,24.88,49.5,24.88Z"/><path class="cls-1" d="M35.91,10.75V53.31h2.76V8.78C38.62,3.42,33.85.58,29,.58a16.68,16.68,0,0,0-3.16.31V3.53a18.62,18.62,0,0,1,3.21-.3c3.39,0,6.83,1.77,6.83,5.4Z"/><path class="cls-1" d="M37.28,71.55a3.32,3.32,0,0,1,1.55-.32,2.77,2.77,0,0,1,2.89,3v5.66H40.09V74.16c0-1.48-1.93-1.53-2.81-.93v6.61H35.63V68.29h1.65Z"/><path class="cls-1" d="M55.66,79.3a7.26,7.26,0,0,1-3,.7c-1.7,0-3.11-.83-3.11-2.94V71.39h1.65V77.1a1.5,1.5,0,0,0,1.68,1.35A2.34,2.34,0,0,0,54,78.16V71.39h1.63Z"/><path class="cls-1" d="M63.58,72.12a4.67,4.67,0,0,1,2.64-.89,2.38,2.38,0,0,1,2.27,1.12,2.5,2.5,0,0,1,2.13-1.12A2.72,2.72,0,0,1,73.5,74v5.83H71.87V74.08A1.11,1.11,0,0,0,70.62,73a1.19,1.19,0,0,0-1.3,1v5.83H67.7V74.05c0-.77-.66-1.08-1.37-1.08a2,2,0,0,0-1.13.34v6.53H63.58Z"/><path class="cls-1" d="M87.19,71.6l1.29,6.26h0l.29-2,1-4.42h1.67l-2.18,8.45H87.61L86.38,74.1h0l-1.23,5.74H83.41l-2.2-8.45h1.7l1,4.45.27,2.06h0c0-.4.24-1.65,1.27-6.3Z"/><path class="cls-1" d="M104.91,78.27A3.19,3.19,0,0,1,102.12,80,2.88,2.88,0,0,1,99,77.1v-3a3.06,3.06,0,0,1,6.11,0v2.31h-4.44V77a1.28,1.28,0,0,0,1.38,1.23,1.49,1.49,0,0,0,1.44-.85Zm-1.35-4.11A1.29,1.29,0,0,0,102.13,73c-.73,0-1.45.39-1.42,1.22V75h2.85Z"/><path class="cls-1" d="M116.56,80a2.71,2.71,0,0,1-3-2.9V68.29h1.66V77.1a1.18,1.18,0,0,0,1.35,1.22Z"/><path class="cls-1" d="M127.28,80a2.7,2.7,0,0,1-3-2.9V68.29h1.65V77.1a1.18,1.18,0,0,0,1.35,1.22Z"/></svg>